<svg width="102" height="45" viewBox="0 0 102 45" fill="none" xmlns="http://www.w3.org/2000/svg">
<rect x="13.2867" y="13.0715" width="6.28571" height="6.28571" fill="#FF1461"/>
<rect x="13.2867" y="6.78574" width="6.28571" height="6.28571" fill="#FF1461"/>
<rect x="13.2867" y="0.500015" width="6.28571" height="6.28571" fill="#FF1461"/>
<rect x="13.2867" y="19.3572" width="6.28571" height="6.28571" fill="#FF1461"/>
<rect x="13.2867" y="31.9286" width="6.28571" height="6.28571" fill="#FF1461"/>
<rect x="13.2867" y="38.2143" width="6.28571" height="6.28571" fill="#FF1461"/>
<rect x="7.00032" y="38.2143" width="6.28571" height="6.28571" fill="#FF1461"/>
<rect x="0.713989" y="31.9286" width="6.28571" height="6.28571" fill="#FF1461"/>
<rect x="0.713989" y="25.6428" width="6.28571" height="6.28571" fill="#FF1461"/>
<rect x="0.713989" y="19.3572" width="6.28571" height="6.28571" fill="#FF1461"/>
<rect x="7.00032" y="13.0715" width="6.28571" height="6.28571" fill="#FF1461"/>
<rect x="13.2867" y="25.6428" width="6.28571" height="6.28571" fill="#FF1461"/>
<rect x="25.855" y="19.3572" width="6.28571" height="6.28571" fill="#FF1461"/>
<rect x="25.855" y="25.6428" width="6.28571" height="6.28571" fill="#FF1461"/>
<rect x="25.855" y="31.9286" width="6.28571" height="6.28571" fill="#FF1461"/>
<rect x="25.855" y="38.2143" width="6.28571" height="6.28571" fill="#FF1461"/>
<rect x="25.855" y="13.0715" width="6.28571" height="6.28571" fill="#FF1461"/>
<rect x="25.855" y="6.78574" width="6.28571" height="6.28571" fill="#FF1461"/>
<rect x="32.1413" y="6.5529" width="6.28571" height="6.28571" fill="#FF1461"/>
<rect x="25.855" y="0.500015" width="6.28571" height="6.28571" fill="#FF1461"/>
<rect x="38.4277" y="25.6428" width="6.28571" height="6.28571" fill="#FF1461"/>
<rect x="38.4277" y="31.9286" width="6.28571" height="6.28571" fill="#FF1461"/>
<rect x="44.714" y="38.2143" width="6.28571" height="6.28571" fill="#FF1461"/>
<rect x="51.0003" y="31.9286" width="6.28571" height="6.28571" fill="#FF1461"/>
<rect x="51.0003" y="25.6428" width="6.28571" height="6.28571" fill="#FF1461"/>
<rect x="44.714" y="13.0715" width="6.28571" height="6.28571" fill="#FF1461"/>
<rect x="51.0003" y="19.3572" width="6.28571" height="6.28571" fill="#FF1461"/>
<rect x="38.4277" y="19.3572" width="6.28571" height="6.28571" fill="#FF1461"/>
<rect x="63.573" y="25.6428" width="6.28571" height="6.28571" fill="#FF1461"/>
<rect x="63.573" y="19.3572" width="6.28571" height="6.28571" fill="#FF1461"/>
<rect x="69.855" y="13.0715" width="6.28571" height="6.28571" fill="#FF1461"/>
<rect x="63.573" y="31.9286" width="6.28571" height="6.28571" fill="#FF1461"/>
<rect x="63.573" y="38.2143" width="6.28571" height="6.28571" fill="#FF1461"/>
<rect x="88.714" y="13.0715" width="6.28571" height="6.28571" fill="#FF1461"/>
<rect x="82.4277" y="25.6428" width="6.28571" height="6.28571" fill="#FF1461"/>
<rect x="82.4277" y="19.3572" width="6.28571" height="6.28571" fill="#FF1461"/>
<rect x="95.0003" y="19.3572" width="6.28571" height="6.28571" fill="#FF1461"/>
<rect x="82.4277" y="31.9286" width="6.28571" height="6.28571" fill="#FF1461"/>
<rect x="88.714" y="38.2143" width="6.28571" height="6.28571" fill="#FF1461"/>
<rect x="95.0003" y="31.9286" width="6.28571" height="6.28571" fill="#FF1461"/>
<rect x="95.0003" y="25.6428" width="6.28571" height="6.28571" fill="#FF1461"/>
</svg>
